<svg xmlns="http://www.w3.org/2000/svg" width="32" height="32" viewBox="0 0 32 32">
  <path fill="#FFFFFF" d="M9.38602125,4.00174413 C9.20861139,3.99221903 9.03835243,4.02317547 8.87165063,4.05889477 C8.53824702,4.13033458 8.19295573,4.26011376 7.83339923,4.43989898 C7.11898034,4.79709805 6.3593578,5.33288141 5.75686597,5.95440596 L5.74734058,5.96393107 C4.23519763,7.48319298 3.7851119,9.53927459 4.08992412,11.5171437 C4.39473634,13.4983656 5.42585513,15.4344766 6.89992704,16.9085057 L16.0823953,26.1001561 C17.5564367,27.5741547 19.5020836,28.605274 21.483363,28.9100774 C23.4610762,29.2148807 25.5077988,28.7648203 27.0272877,27.2527091 L27.0368131,27.243184 C27.6583557,26.6407096 28.1941546,25.8810787 28.5513641,25.166711 C28.7311545,24.8071345 28.870472,24.4618532 28.9418895,24.1284898 C29.013307,23.7951263 29.0645277,23.434361 28.8085342,23.061678 C28.7692408,23.0069078 28.7204251,22.9580936 28.6656534,22.9188014 L23.7313532,19.3373618 C23.4872656,19.1611489 23.1515089,19.1897211 22.9407312,19.4040375 L21.9215001,20.423239 C21.4868988,20.8578277 21.0463537,21.0471411 20.6641497,21.0709462 C20.2819457,21.0947513 19.9223587,20.9673618 19.5496952,20.5946909 L12.3960572,13.4507096 C12.0233633,13.0780265 11.8959823,12.7089401 11.9197881,12.3267471 C11.9435939,11.9445542 12.1424443,11.5135317 12.5770242,11.0789431 L13.5962553,10.0597416 C13.8070055,9.84661697 13.8320093,9.51085168 13.6534076,9.26914261 L10.0813132,4.33498566 C10.0396392,4.27545451 9.98843994,4.22425669 9.92890706,4.18258397 C9.74316059,4.05518531 9.56337624,4.01113208 9.38597553,4.00160697 L9.38602125,4.00174413 Z M9.23361514,5.24000782 L12.3673896,9.55480432 L11.7101535,10.2120213 C11.1148247,10.8073328 10.7552378,11.5121906 10.7100036,12.2503939 C10.6647695,12.9885972 10.961236,13.7303666 11.5387271,14.3078166 L18.6923652,21.4612469 C19.2698319,22.0386969 20.0021128,22.3351791 20.7403375,22.2899463 C21.4785622,22.2447135 22.1834405,21.8755966 22.7787693,21.2802852 L23.4264952,20.632578 L27.7606202,23.7568125 C27.7618108,23.7877684 27.7641923,23.8103909 27.7510948,23.8711138 C27.7118015,24.0532826 27.6117865,24.3199977 27.4653334,24.614072 C27.1712384,25.2022511 26.6878184,25.895191 26.1889322,26.3762012 L26.1794068,26.3857264 C24.9577804,27.6073173 23.3515724,27.9597614 21.6645282,27.7001909 C19.977484,27.4406203 18.2436206,26.527399 16.9493879,25.2331734 L7.75747051,16.0509719 C6.46320733,14.7567463 5.54995943,13.0231771 5.29038134,11.3359685 C5.03080325,9.64875996 5.39277996,8.04256813 6.61442467,6.82122102 L6.62395005,6.81169592 C7.10497422,6.31282424 7.78842419,5.8294061 8.37662034,5.53533181 C8.67071536,5.38888293 8.94695449,5.28887085 9.12914075,5.24957865 C9.18510123,5.23767242 9.20296322,5.24005354 9.23391995,5.24005354 L9.23361514,5.24000782 Z"/>
</svg>
