<svg xmlns="http://www.w3.org/2000/svg" width="32" height="32" viewBox="0 0 32 32">
  <path fill="currentColor" d="M16,25 C15.2893214,25 14.7142857,24.424945 14.7142857,23.7142857 L14.7142857,17.2857143 L8.28571429,17.2857143 C7.57503571,17.2857143 7,16.7106593 7,16 C7,15.2893407 7.575055,14.7142857 8.28571429,14.7142857 L14.7142857,14.7142857 L14.7142857,8.28571429 C14.7142857,7.57503571 15.2893407,7 16,7 C16.7106593,7 17.2857143,7.575055 17.2857143,8.28571429 L17.2857143,14.7142857 L23.7142857,14.7142857 C24.4249643,14.7142857 25,15.2893407 25,16 C25,16.7106593 24.424945,17.2857143 23.7142857,17.2857143 L17.2857143,17.2857143 L17.2857143,23.7142857 C17.2857143,24.4249643 16.7106593,25 16,25 Z"/>
</svg>
